# xmcd
# 
# Track frame offsets:
#     150
#     17370
#     34050
#     49917
#     65295
#     78980
#     92677
#     110212
#     131892
#     145800
#     158002
#     172875
#     183340
#     203512
#     218475
#     232257
# 
# Disc length: 3315
# 
# Revision: 0
# Processed by: cddbd v1.5.1PL2 Copyright (c) Steve Scherf et al.
# Submitted via: BonkEnc v1.0beta3
# 
DISCID=d30cf110
DTITLE=Jonny Hill - Bis ans Ende der Welt
DYEAR=1900
DGENRE=Country
TTITLE0=Das hab ich beim Frisör gehört
TTITLE1=Wenn Dich jemand vermisst
TTITLE2=Jambayala
TTITLE3=Bis ans Ende der Welt
TTITLE4=Der Regenmann
TTITLE5=Stell Dir einmal vor....
TTITLE6=Deine Augen
TTITLE7=Ruf Teddybaer 1-4
TTITLE8=Suchst Du Gold
TTITLE9=Wenn ich nur fliegen könnte
TTITLE10=Das fremde Gesicht
TTITLE11=Rauch in Deinen Haaren
TTITLE12=Hallo Teddybaer
TTITLE13=Lass mich sein wie ich bin
TTITLE14=Ich wär ohne Dich verloren
TTITLE15=Tierra Libre
EXTD=
EXTT0=
EXTT1=
EXTT2=
EXTT3=
EXTT4=
EXTT5=
EXTT6=
EXTT7=
EXTT8=
EXTT9=
EXTT10=
EXTT11=
EXTT12=
EXTT13=
EXTT14=
EXTT15=
PLAYORDER=
